<?xml version="1.0" encoding="utf-8"?>
<!-- Generator: Adobe Illustrator 16.0.0, SVG Export Plug-In . SVG Version: 6.00 Build 0)  -->
<!DOCTYPE svg PUBLIC "-//W3C//DTD SVG 1.1//EN" "http://www.w3.org/Graphics/SVG/1.1/DTD/svg11.dtd">
<svg version="1.1" id="Layer_1" xmlns="http://www.w3.org/2000/svg" xmlns:xlink="http://www.w3.org/1999/xlink" x="0px" y="0px"
	 width="250px" height="225px" viewBox="0 0 250 225" enable-background="new 0 0 250 225" xml:space="preserve">
<path fill="none" d="M97.9,214.8c-2.2,0.8-2.3,3.3-2.2,5.2c0,2.5,1.8,5,4.5,4c2.2-0.8,2.2-3.3,2.2-5.2
	C102.4,216.3,100.7,213.9,97.9,214.8z"/>
<path fill="none" d="M111.9,216.3c-0.4-1.2-1.6-1.5-2.8-1.5c-0.7,0-1.4,0-2.1,0c-0.6,0-0.4,0.2-0.4,0.7c0,1.3,0,2.7,0,4
	c1.2,0,2.9,0.3,4-0.2C111.9,218.8,112.3,217.5,111.9,216.3z"/>
<path fill="none" d="M136.3,185c3.5,0,7,0,10.5,0c-1.8-5.5-3.5-11.1-5.3-16.6C139.8,173.9,138,179.4,136.3,185z"/>
<path fill="none" d="M89,214.9c-1-0.2-2.1-0.1-3-0.1c0,1.8,0,3.6,0,5.4c0,1,0,2.1,0,3.1c0,0.9,0.1,0.7,1,0.7c1.4,0,2.8,0,3.8-1.1
	c1-1.1,1.1-2.6,1.1-4C91.9,217,90.9,215.3,89,214.9z"/>
<path fill="none" d="M107.3,176.4c2.1-1.5,2.6-4.1,2.3-6.5c-0.3-2.4-1.6-4.6-3.8-5.5c-1.4-0.6-2.8-0.6-4.2-0.6c-1.6,0-3.1,0-4.7,0
	c-0.3,0-1.9-0.2-1.9,0.1c0,4.6,0,9.1,0,13.7c2.4,0,4.9,0,7.3,0C104,177.6,105.8,177.5,107.3,176.4z"/>
<path fill="none" d="M116.8,221c1.5,0,3,0,4.4,0c-0.7-2-1.5-3.9-2.2-5.9C118.3,217.1,117.5,219.1,116.8,221z"/>
<path fill="none" d="M133.9,222.6c-0.7-0.8-1.5-1.7-2.2-2.5c-0.1-0.2-0.3-0.3-0.4-0.5c-0.2-0.2-1.2,1-1.4,1.1c-1.3,1.7,0,3.5,2,3.5
	c0.9,0,1.9-0.4,2.5-1.1C134.4,223,134,222.7,133.9,222.6z"/>
<path fill="none" d="M131.5,218.4c0.5-0.4,1.1-0.7,1.5-1.2c0.7-0.7,0.7-2-0.4-2.4c-1.1-0.4-2.2,0.4-2.2,1.6
	C130.3,216.7,131.1,218.6,131.5,218.4z"/>
<path fill="none" d="M76.6,221c1.5,0,3,0,4.4,0c-0.7-2-1.5-3.9-2.2-5.9C78,217.1,77.3,219.1,76.6,221z"/>
<path fill="none" d="M11.8,177c2.4,0,4.8,0,7.2,0c1.9,0,3.9-0.3,5.3-1.7c1.7-1.8,2-4.7,1.4-7.1c-0.6-2.4-2.5-3.9-4.8-4.3
	c-1.2-0.2-2.5-0.1-3.8-0.1c-1.5,0-3,0-4.5,0c-0.8,0-0.7-0.1-0.7,0.7C11.8,168.6,11.8,172.8,11.8,177z"/>
<path fill="none" d="M27.8,214.8c-2.2,0.8-2.3,3.3-2.2,5.2c0,2.5,1.8,5,4.5,4c2.2-0.8,2.2-3.3,2.2-5.2
	C32.3,216.3,30.5,213.9,27.8,214.8z"/>
<path fill="none" d="M180.4,177c2.4,0,4.8,0,7.2,0c1.9,0,3.9-0.3,5.3-1.7c1.7-1.8,2-4.7,1.4-7.1c-0.6-2.4-2.5-3.9-4.8-4.3
	c-1.2-0.2-2.5-0.1-3.8-0.1c-1.5,0-3,0-4.5,0c-0.8,0-0.7-0.1-0.7,0.7C180.4,168.6,180.4,172.8,180.4,177z"/>
<path fill="none" d="M167.4,62.8c0,1.1,0,2.3,0,3.4c4.8,0,9.5,0,14.3,0c5.8,0,12.2,0.6,17.7-1.6c9.7-3.9,12.1-15.7,9.6-25
	c-1.2-4.4-3.9-8.3-8-10.5c-3.5-1.9-7.6-2.5-11.6-2.5c-5.4,0-10.7,0-16.1,0c-1.9,0-3.9,0-5.8,0c-0.3,0-0.1,2-0.1,2.2
	C167.4,40.2,167.4,51.5,167.4,62.8z"/>
<path fill="none" d="M71.7,216.3c-0.4-1.2-1.6-1.5-2.8-1.5c-0.7,0-1.4,0-2.1,0c-0.6,0-0.4,0.2-0.4,0.7c0,1.3,0,2.7,0,4
	c1.2,0,2.9,0.3,4-0.2C71.6,218.8,72.1,217.5,71.7,216.3z"/>
<path fill="none" d="M41.8,216.3c-0.4-1.2-1.6-1.5-2.8-1.5c-0.7,0-1.4,0-2.1,0c-0.6,0-0.4,0.2-0.4,0.7c0,1.3,0,2.7,0,4
	c1.2,0,2.9,0.3,4-0.2C41.7,218.8,42.2,217.5,41.8,216.3z"/>
<path fill="none" d="M57.7,214.8c-2.2,0.7-2.3,3.3-2.2,5.2c0,2.5,1.8,5,4.5,4c2.2-0.8,2.2-3.3,2.2-5.2
	C62.2,216.3,60.5,213.9,57.7,214.8z"/>
<path fill="none" d="M49.1,214.8c-0.8,0-1.6,0-2.4,0c-0.6,0-0.4,0.2-0.4,0.7c0,1.4,0,2.8,0,4.2c1.3,0,3,0.3,4.3-0.2
	c1.3-0.5,1.7-2.1,1.1-3.3C51.2,215.1,50.1,214.8,49.1,214.8z"/>
<path fill="none" d="M243.2,221c1.5,0,3,0,4.4,0c-0.7-2-1.5-3.9-2.2-5.9C244.6,217.1,243.9,219.1,243.2,221z"/>
<path fill="none" d="M198.7,216.3c-0.4-1.2-1.6-1.5-2.8-1.5c-0.7,0-1.4,0-2.1,0c-0.6,0-0.4,0.2-0.4,0.7c0,1.3,0,2.7,0,4
	c1.2,0,2.9,0.3,4.1-0.2C198.6,218.8,199.1,217.5,198.7,216.3z"/>
<path fill="none" d="M155.2,214.8c-2.2,0.7-2.3,3.3-2.2,5.2c0,2.5,1.8,5,4.5,4c2.2-0.8,2.2-3.3,2.2-5.2
	C159.7,216.3,157.9,213.9,155.2,214.8z"/>
<path fill="none" d="M224.3,214.8c-2.2,0.8-2.3,3.3-2.2,5.2c0,2.5,1.8,5,4.5,4c2.2-0.7,2.2-3.3,2.2-5.2
	C228.8,216.3,227.1,213.9,224.3,214.8z"/>
<path fill="none" d="M238.3,216.3c-0.4-1.2-1.6-1.5-2.8-1.5c-0.7,0-1.4,0-2.1,0c-0.6,0-0.4,0.2-0.4,0.7c0,1.3,0,2.7,0,4
	c1.2,0,2.9,0.3,4-0.2C238.2,218.8,238.7,217.5,238.3,216.3z"/>
<path d="M0,187.7c0,4.6,0,9.3,0,13.9c0,0.4,0,0.8,0,1.2c0,0.3,0.7,0.1,0.9,0.1c2.9,0,5.8,0,8.8,0c0.1,0,2.1,0,2.1,0
	c0-0.6,0-1.2,0-1.8c0-3,0-6,0-9c0-2,0-4.1,0-6.1c0,0,5.8,0,6.4,0c0,0,0,0.1,0.1,0.1c2.4,4.7,4.8,9.4,7.2,14.2
	c0.4,0.8,0.8,1.6,1.2,2.4c0.2,0.4,0.4,0.3,0.9,0.3c2.9,0,5.8,0,8.7,0c1,0,2,0,3,0c0.4,0,0-0.7-0.1-0.9c-1.1-2.1-2.2-4.1-3.3-6.2
	c-2.2-4.2-4.5-8.5-6.7-12.7c2.7-1.3,5.2-3.1,6.7-5.8c1.5-2.6,1.9-5.8,1.8-8.8c-0.3-5.7-3.8-10.1-9.1-12.1
	c-5.7-2.1-12.4-1.5-18.5-1.5c-2.9,0-5.7,0-8.6,0c-0.2,0-1.4-0.2-1.5,0c-0.1,0.1,0,0.6,0,0.7C0,166.2,0,177,0,187.7z M12.5,163.8
	c1.5,0,3,0,4.5,0c1.3,0,2.6-0.1,3.8,0.1c2.4,0.4,4.2,1.9,4.8,4.3c0.6,2.3,0.3,5.3-1.4,7.1c-1.4,1.4-3.4,1.7-5.3,1.7
	c-2.4,0-4.8,0-7.2,0c0-4.2,0-8.3,0-12.5C11.8,163.7,11.7,163.8,12.5,163.8z"/>
<path d="M75.7,202.8c0.4,0,2.7,0.2,2.7-0.2c0-2.7,0-5.4,0-8.1c0-0.6,0.1-0.6-0.5-0.6c-0.9,0-1.8,0-2.7,0c-3.1,0-6.1,0-9.2,0
	c-2.7,0-5.4,0-8.2,0c-0.2,0-1.2,0.1-1.4,0c-0.2-0.2,0-2,0-2.3c0-2.9,0-5.7,0-8.6c0-0.6,0-0.5,0.5-0.5c1,0,2,0,3,0c5,0,10,0,14.9,0
	c0-1.5,0-3.1,0-4.6c0-1.3,0-2.5,0-3.8c0-0.4-0.6-0.2-0.9-0.2c-2.7,0-5.5,0-8.2,0c-2.8,0-5.5,0-8.3,0c-0.2,0-1,0.1-1-0.1
	c0-1.1,0-2.2,0-3.4c0-0.5,0-6.6,0-6.6c1.8,0,3.6,0,5.5,0c5.4,0,10.8,0,16.1,0c0.5,0,0.3-0.6,0.3-1c0-1.5,0-3,0-4.5
	c0-1.1,0-2.2,0-3.3c0-0.1-0.6-0.1-0.7-0.1c-5.1,0-10.1,0-15.2,0c-5.4,0-10.9,0-16.3,0c-0.4,0-0.9,0-1.3,0c-0.1,0-0.1,0.3-0.1,0.4
	c0,1.4,0,2.8,0,4.2c0,11.9,0,23.8,0,35.7c0,2,0,3.9,0,5.9c0,0.2-0.2,1.7,0.1,1.7c4.4,0,8.8,0,13.2,0C64,202.8,69.8,202.8,75.7,202.8
	z"/>
<path d="M94.9,202.8c0,0,0-1.4,0-1.5c0-4.9,0-9.9,0-14.8c4.7,0,9.7,0.4,14.3-0.7c3.6-0.9,6.9-2.6,9.3-5.5c2.5-3,3.3-7,3-10.9
	c-0.5-5.4-3.8-10-8.7-12.4c-3.5-1.7-7.3-2.2-11.1-2.2c-5.6,0-11.2,0-16.7,0c-0.6,0-1.2,0-1.8,0c-0.1,0,0,0.5,0,0.5c0,1.5,0,3,0,4.5
	c0,5.8,0,11.6,0,17.4c0,6.1,0,12.3,0,18.4c0,1.9,0,3.8,0,5.7c0,0.4,0,0.9,0,1.3c0,0.3,0.3,0.2,0.6,0.2c2.9,0,5.7,0,8.6,0
	C93.2,202.8,94,202.8,94.9,202.8z M94.9,163.9c0-0.3,1.6-0.1,1.9-0.1c1.6,0,3.1,0,4.7,0c1.4,0,2.9,0,4.2,0.6c2.2,1,3.5,3.2,3.8,5.5
	c0.3,2.4-0.2,5-2.3,6.5c-1.5,1-3.3,1.2-5,1.2c-2.4,0-4.9,0-7.3,0C94.9,173.1,94.9,168.5,94.9,163.9z"/>
<path d="M153,202.8c4,0,8.1,0,12.1,0c-0.3-0.8-0.6-1.6-0.9-2.4c-4.1-10.8-8.1-21.6-12.2-32.4c-1.5-4.1-3.1-8.1-4.6-12.2
	c-0.1-0.3-0.2-0.6-0.4-0.9c-0.1-0.2-1-0.1-1.2-0.1c-2.9,0-5.9,0-8.8,0c-0.2,0-1-0.1-1.1,0.1c-0.1,0.3-0.2,0.7-0.4,1
	c-0.6,1.6-1.2,3.2-1.8,4.8c-2.1,5.5-4.1,11.1-6.2,16.6c-3.2,8.5-6.3,17-9.5,25.5c4.1,0,8.2,0,12.3,0c0.5,0,0.5-0.9,0.7-1.3
	c0.5-1.5,0.9-2.9,1.4-4.4c0.3-1.1,0.7-2.1,1-3.2c0.1-0.2,1.1-0.1,1.3-0.1c4.9,0,9.9,0,14.8,0c0.6,1.9,1.2,3.8,1.8,5.7
	c0.3,1,0.6,2,0.9,2.9C152.5,202.9,152.5,202.8,153,202.8z M136.3,185c1.7-5.5,3.5-11.1,5.2-16.6c1.8,5.5,3.5,11.1,5.3,16.6
	C143.3,185,139.8,185,136.3,185z"/>
<path d="M168.6,201.6c0,0.4,0,0.8,0,1.2c0,0.3,0.7,0.1,0.9,0.1c2.9,0,5.8,0,8.8,0c0.1,0,2.1,0,2.1,0c0-0.6,0-1.2,0-1.8c0-3,0-6,0-9
	c0-2,0-4.1,0-6.1c0,0,5.8,0,6.4,0c0,0,0,0.1,0.1,0.1c2.4,4.7,4.8,9.4,7.2,14.2c0.4,0.8,0.8,1.6,1.2,2.4c0.2,0.4,0.4,0.3,0.9,0.3
	c2.9,0,5.8,0,8.7,0c1,0,2,0,3,0c0.4,0,0-0.7-0.1-0.9c-1.1-2.1-2.2-4.1-3.3-6.2c-2.2-4.2-4.5-8.5-6.7-12.7c2.6-1.2,5.1-3,6.6-5.6
	c1.5-2.6,2-5.7,1.9-8.7c-0.2-5.7-3.5-10.2-8.8-12.3c-5.8-2.3-12.5-1.6-18.6-1.6c-2.9,0-5.8,0-8.7,0c-0.2,0-1.4-0.2-1.5,0
	c-0.1,0.1,0,0.6,0,0.7c0,10.7,0,21.4,0,32.1C168.6,192.3,168.6,196.9,168.6,201.6z M181.1,163.8c1.5,0,3,0,4.5,0
	c1.3,0,2.6-0.1,3.8,0.1c2.4,0.4,4.2,1.9,4.8,4.3c0.6,2.3,0.3,5.3-1.4,7.1c-1.4,1.4-3.4,1.7-5.3,1.7c-2.4,0-4.8,0-7.2,0
	c0-4.2,0-8.3,0-12.5C180.4,163.7,180.3,163.8,181.1,163.8z"/>
<path d="M250,154.9c-0.1-0.1-1.1,0-1.3,0c-1.2,0-2.4,0-3.6,0c-11.3,0-22.7,0-34,0c-0.5,0-1.1,0-1.6,0c-0.4,0-0.3,0.1-0.3,0.5
	c0,2.7,0,5.4,0,8.1c0,0.5,0.6,0.3,1.1,0.3c1.3,0,2.6,0,4,0c2.9,0,5.7,0,8.6,0c0.2,0,0.8-0.2,0.8,0.1c0,0.5,0,0.9,0,1.4
	c0,2.1,0,4.3,0,6.4c0,6.4,0,12.7,0,19.1c0,4,0,7.9,0,11.9c0,0.2,11.8,0,11.8,0.1c0-10.1,0-20.2,0-30.2c0-2.3,0-4.5,0-6.8
	c0-0.6,0-1.1,0-1.7c0-0.3,0-0.3,0.3-0.3c4.8,0,9.5,0,14.3,0c0-1.5,0-3,0-4.6c0-1,0-2.1,0-3.1C250,156,250.1,155,250,154.9z"/>
<path d="M0,214c-0.2,0.2,0,1.8,0,2.1c0,1.4,0,2.8,0,4.1c0,1.2,0,2.5,0,3.7c0,1-0.1,1,0.9,1c0-2.1,0-4.1,0-6.2c0-1.2,0-2.5,0-3.7
	c0-0.3,0-0.6,0-0.9C0.9,213.9,0.1,213.9,0,214z"/>
<path d="M11.2,214c0,0.2,0,0.4,0,0.6c0,1.1,0,2.2,0,3.2c0,1.8,0,3.6,0,5.4c-1.4-2.1-2.9-4.2-4.3-6.3c-0.6-0.9-1.3-1.9-1.9-2.8
	c-0.2-0.3-0.5-0.2-0.9-0.2c-0.2,0-0.1,0.2-0.1,0.4c0,2.8,0,5.7,0,8.5c0,0.5,0,1,0,1.6c0,0.3-0.1,0.4,0.3,0.4c0.5,0,0.6,0.1,0.6-0.3
	c0-0.5,0-1,0-1.5c0-2.5,0-5,0-7.4c1.2,1.7,2.4,3.5,3.6,5.2c0.7,1.1,1.5,2.1,2.2,3.2c0.6,0.8,0.5,0.9,1.5,0.9c0-3.6,0-7.2,0-10.8
	C12.1,214,11.2,214,11.2,214z"/>
<path d="M19.3,214.7c1,0.1,1.8,0.6,2.2,1.5c0.1,0.3,0.2,1.2,0.5,1.2c0.3,0,0.5,0,0.8,0c-0.3-2.7-2.8-4.2-5.3-3.3
	c-2.4,0.8-2.9,3.3-2.9,5.5c0,2.2,0.7,4.8,3.2,5.3c2.5,0.6,4.8-0.9,5.1-3.4c-0.3,0-0.6,0-0.9,0c0,0-0.5,1.5-0.6,1.7
	c-0.7,1-2,1.2-3.1,1c-2.5-0.4-2.6-3.1-2.6-5.1C15.5,216.7,16.5,214.3,19.3,214.7z"/>
<path d="M30.1,214c-3.3-0.9-5.5,1.8-5.5,4.9c0,2.3,0.3,5,2.8,5.9c3.3,1.2,5.8-1.6,5.8-4.8C33.2,217.6,32.9,214.8,30.1,214z
	 M30.1,224c-2.8,1-4.5-1.5-4.5-4c0-1.9,0.1-4.4,2.2-5.2c2.8-1,4.5,1.5,4.5,4C32.3,220.8,32.2,223.3,30.1,224z"/>
<path d="M40.6,220.1c0.9-0.3,1.7-0.9,2.1-1.8c1-2.5-1.2-4.3-3.6-4.3c-1.2,0-2.4,0-3.6,0c0,0,0,6.5,0,7c0,1.2,0,2.4,0,3.6
	c0,0.4,0.2,0.3,0.6,0.3c0.5,0,0.3-0.3,0.3-0.8c0-0.8,0-1.6,0-2.5c0-0.2-0.1-1.1,0-1.3c0.1-0.2,1.5,0,1.7,0c0.5,0,1,0,1.5,0
	c0.6,1,1.2,2,1.7,2.9c0.3,0.5,0.6,1,0.9,1.5c0.2,0.3,0.8,0.1,1.1,0.1c-0.1-0.7-0.9-1.7-1.3-2.3C41.5,221.7,41,220.9,40.6,220.1z
	 M36.5,219.6c0-1.3,0-2.7,0-4c0-0.6-0.2-0.7,0.4-0.7c0.7,0,1.4,0,2.1,0c1.1,0,2.4,0.4,2.8,1.5c0.4,1.2-0.1,2.5-1.3,3
	C39.3,219.8,37.7,219.6,36.5,219.6z"/>
<path d="M49.1,214c-1.2,0-2.4,0-3.7,0c-0.1,0-0.1,1.9-0.1,2.1c0,2.8,0,5.6,0,8.4c0,0.5,0,0.4,0.6,0.4c0.5,0,0.4-0.3,0.4-0.8
	c0-1.2,0-2.4,0-3.7c0.7,0,1.3,0,2,0c1.8,0,4-0.2,4.5-2.3C53.3,215.6,51.5,214,49.1,214z M50.6,219.4c-1.2,0.5-3,0.2-4.3,0.2
	c0-1.4,0-2.8,0-4.2c0-0.5-0.2-0.7,0.4-0.7c0.8,0,1.6,0,2.4,0c1.1,0,2.2,0.3,2.6,1.3C52.3,217.3,51.9,218.9,50.6,219.4z"/>
<path d="M60.3,214.1c-3.3-1.2-5.8,1.6-5.8,4.8c-0.1,2.3,0.3,5,2.8,5.9c3.3,1.2,5.8-1.6,5.8-4.8C63.1,217.7,62.9,215,60.3,214.1z
	 M60,224c-2.8,1-4.5-1.5-4.5-4c0-1.9,0.1-4.4,2.2-5.2c2.8-1,4.5,1.5,4.5,4C62.2,220.8,62.2,223.3,60,224z"/>
<path d="M70.5,220.1c0.9-0.3,1.7-0.9,2.1-1.8c1-2.5-1.2-4.3-3.6-4.3c-1.2,0-2.4,0-3.6,0c0,0,0,6.5,0,7c0,1.2,0,2.4,0,3.6
	c0,0.4,0.2,0.3,0.6,0.3c0.5,0,0.3-0.3,0.3-0.8c0-0.8,0-1.6,0-2.5c0-0.2-0.1-1.1,0-1.3c0.1-0.2,1.5,0,1.7,0c0.5,0,1,0,1.5,0
	c0.6,1,1.2,2,1.7,2.9c0.3,0.5,0.6,1,0.9,1.5c0.2,0.3,0.8,0.1,1.1,0.1c-0.1-0.7-0.9-1.7-1.3-2.3C71.4,221.7,71,220.9,70.5,220.1z
	 M66.4,219.6c0-1.3,0-2.7,0-4c0-0.6-0.2-0.7,0.4-0.7c0.7,0,1.4,0,2.1,0c1.1,0,2.4,0.4,2.8,1.5c0.4,1.2-0.1,2.5-1.3,3
	C69.3,219.8,67.6,219.6,66.4,219.6z"/>
<path d="M79.7,215.3c-0.1-0.4-0.3-0.7-0.4-1.1c-0.1-0.3-0.3-0.2-0.6-0.2c-0.6,0-0.7,0.9-0.9,1.4c-0.5,1.3-1,2.5-1.5,3.8
	c-0.7,1.9-1.4,3.7-2.2,5.6c0.1,0,1,0.1,1,0c0.1-0.4,0.3-0.7,0.4-1.1c0.1-0.3,0.5-2,0.8-2c1.6,0,3.3,0,4.9,0c0.3,0.8,0.6,1.5,0.9,2.3
	c0.3,0.8,0.3,0.7,1.2,0.7c-0.7-1.9-1.5-3.9-2.2-5.8C80.7,217.8,80.2,216.6,79.7,215.3z M76.6,221c0.7-2,1.5-3.9,2.2-5.9
	c0.7,2,1.5,3.9,2.2,5.9C79.5,221,78,221,76.6,221z"/>
<path d="M90.8,214.8c-1.4-0.9-3-0.8-4.6-0.8c-0.1,0-1.2,0-1.2,0c0,0.2,0,0.5,0,0.7c0,1.2,0,2.5,0,3.7c0,2.1,0,4.3,0,6.4
	c1.1,0,2.2,0.1,3.4,0c2.7-0.2,4.4-2.3,4.4-4.9C92.9,218,92.6,215.9,90.8,214.8z M90.8,222.9c-1,1.1-2.4,1.1-3.8,1.1
	c-1,0-1,0.2-1-0.7c0-1,0-2.1,0-3.1c0-1.8,0-3.6,0-5.4c1,0,2.1-0.1,3,0.1c1.9,0.4,2.9,2.2,2.9,4C91.9,220.3,91.9,221.8,90.8,222.9z"
	/>
<path d="M100.2,214c-3.3-0.9-5.5,1.8-5.5,4.9c0,2.3,0.3,5,2.8,5.9c3.3,1.2,5.8-1.6,5.8-4.8C103.3,217.6,103,214.8,100.2,214z
	 M100.2,224c-2.8,1-4.5-1.5-4.5-4c0-1.9,0.1-4.4,2.2-5.2c2.8-1,4.5,1.5,4.5,4C102.4,220.8,102.4,223.3,100.2,224z"/>
<path d="M110.7,220.1c0.9-0.3,1.7-0.9,2.1-1.8c1-2.5-1.2-4.3-3.6-4.3c-1.2,0-2.4,0-3.6,0c0,0,0,6.5,0,7c0,1.2,0,2.4,0,3.6
	c0,0.4,0.2,0.3,0.6,0.3c0.5,0,0.3-0.3,0.3-0.8c0-0.8,0-1.6,0-2.5c0-0.2-0.1-1.1,0-1.3c0.1-0.2,1.5,0,1.7,0c0.5,0,1,0,1.5,0
	c0.6,1,1.2,2,1.7,2.9c0.3,0.5,0.6,1,0.9,1.5c0.2,0.3,0.8,0.1,1.1,0.1c-0.1-0.7-0.9-1.7-1.3-2.3C111.7,221.7,111.2,220.9,110.7,220.1
	z M106.6,219.6c0-1.3,0-2.7,0-4c0-0.6-0.2-0.7,0.4-0.7c0.7,0,1.4,0,2.1,0c1.1,0,2.4,0.4,2.8,1.5c0.4,1.2-0.1,2.5-1.3,3
	C109.5,219.8,107.9,219.6,106.6,219.6z"/>
<path d="M119.9,215.3c-0.1-0.4-0.3-0.7-0.4-1.1c-0.1-0.3-0.3-0.2-0.6-0.2c-0.6,0-0.7,0.9-0.9,1.4c-0.5,1.3-1,2.5-1.5,3.8
	c-0.7,1.9-1.4,3.7-2.2,5.6c0.1,0,1,0.1,1,0c0.1-0.4,0.3-0.7,0.4-1.1c0.1-0.3,0.5-2,0.8-2c1.6,0,3.3,0,4.9,0c0.3,0.8,0.6,1.5,0.9,2.3
	c0.3,0.8,0.3,0.7,1.2,0.7c-0.7-1.9-1.5-3.9-2.2-5.8C120.9,217.8,120.4,216.6,119.9,215.3z M116.8,221c0.7-2,1.5-3.9,2.2-5.9
	c0.7,2,1.5,3.9,2.2,5.9C119.7,221,118.3,221,116.8,221z"/>
<path d="M136,222.1c0.3-0.7,0.4-1.4,0.4-2.1c-0.5,0-0.8-0.2-0.9,0.3c0,0.8-0.3,1.5-0.7,2.1c-1-1.2-2-2.3-3-3.5
	c0.7-0.5,1.4-1,1.9-1.6c0.8-1,0.7-2.5-0.5-3.2c-1.2-0.7-3-0.3-3.6,1c-0.6,1.4,0.2,2.7,1,3.8c-1.6,1.1-3.1,3-1.7,4.9
	c1.4,1.8,4.4,1.4,5.9-0.1c0.3,0.4,0.6,0.7,0.9,1.1c0.1,0.1,0.9,0,1.1,0c-0.5-0.5-0.9-1.1-1.4-1.6C135.3,223,135.9,222.4,136,222.1z
	 M130.3,216.3c0-1.2,1.1-2,2.2-1.6c1.1,0.4,1.1,1.7,0.4,2.4c-0.4,0.5-1,0.8-1.5,1.2C131.1,218.6,130.3,216.7,130.3,216.3z
	 M131.9,224.2c-2,0-3.3-1.8-2-3.5c0.1-0.2,1.2-1.3,1.4-1.1c0.2,0.2,0.3,0.3,0.4,0.5c0.7,0.8,1.5,1.7,2.2,2.5
	c0.1,0.1,0.5,0.4,0.5,0.5C133.7,223.8,132.8,224.2,131.9,224.2z"/>
<path d="M146.7,214.7c1,0.1,1.8,0.6,2.2,1.5c0.1,0.3,0.2,1.2,0.5,1.2c0.3,0,0.5,0,0.8,0c-0.3-2.7-2.8-4.2-5.3-3.3
	c-2.4,0.8-2.9,3.3-2.9,5.5c0,2.2,0.7,4.8,3.2,5.3c2.5,0.6,4.8-0.9,5.1-3.4c-0.3,0-0.6,0-0.9,0c0,0-0.5,1.5-0.6,1.7
	c-0.7,1-2,1.2-3.1,1c-2.5-0.4-2.6-3.1-2.6-5.1C142.9,216.7,143.9,214.3,146.7,214.7z"/>
<path d="M157.8,214.1c-3.3-1.2-5.8,1.6-5.8,4.8c-0.1,2.3,0.3,5,2.8,5.9c3.3,1.2,5.8-1.6,5.8-4.8C160.6,217.7,160.3,215,157.8,214.1z
	 M157.5,224c-2.8,1-4.5-1.5-4.5-4c0-1.9,0.1-4.4,2.2-5.2c2.8-1,4.5,1.5,4.5,4C159.7,220.8,159.7,223.3,157.5,224z"/>
<path d="M170.2,214c0,0.2,0,0.4,0,0.6c0,1.1,0,2.2,0,3.2c0,1.8,0,3.6,0,5.4c-1.4-2.1-2.9-4.2-4.3-6.3c-0.6-0.9-1.3-1.9-1.9-2.8
	c-0.2-0.3-0.5-0.2-0.9-0.2c-0.2,0-0.1,0.2-0.1,0.4c0,2.8,0,5.7,0,8.5c0,0.5,0,1,0,1.6c0,0.3-0.1,0.4,0.3,0.4c0.5,0,0.6,0.1,0.6-0.3
	c0-0.5,0-1,0-1.5c0-2.5,0-5,0-7.4c1.2,1.7,2.4,3.5,3.6,5.2c0.7,1.1,1.5,2.1,2.2,3.2c0.6,0.8,0.5,0.9,1.5,0.9c0-3.6,0-7.2,0-10.8
	C171.2,214,170.2,214,170.2,214z"/>
<path d="M178.4,219.2c-1.2-0.4-3.1-0.6-3.7-1.8c-0.6-1.3,0.4-2.4,1.6-2.7c1.2-0.3,2.7-0.1,3.4,1c0.2,0.3,0.4,1.4,0.5,1.4
	c0.3,0,0.5,0,0.8,0c0-3.9-7.1-4.5-7.5-0.7c-0.4,4.2,6.6,2.3,6.6,5.8c0,2.1-3,2.3-4.4,1.8c-0.9-0.3-1.5-1-1.6-1.9
	c0-0.5-0.5-0.3-0.9-0.3c0,3,3.9,3.9,6.2,2.9c1.2-0.5,2-1.7,1.7-3.1C180.8,220.2,179.5,219.6,178.4,219.2z"/>
<path d="M190.4,214c-0.5,0-1,0-1.4,0c-1.5,0-2.9,0-4.4,0c-0.6,0-1.2,0-1.8,0c-0.1,0-0.6-0.1-0.7,0c0,0,0,0.7,0,0.8c0,0,0.4,0,0.4,0
	c0.7,0,1.3,0,2,0c0.1,0,1.4,0,1.4,0c0,0.3,0,0.5,0,0.8c0,1.4,0,2.8,0,4.3s0,2.8,0,4.3c0,0.1-0.1,0.7,0,0.8c0.1,0.1,0.9,0.1,0.9-0.1
	c0-2.7,0-5.4,0-8.1c0-0.4-0.2-1.9,0.2-1.9c1.2,0,2.4,0,3.6,0C190.7,214.4,190.8,214,190.4,214z"/>
<path d="M197.5,220.1c0.9-0.3,1.7-0.9,2.1-1.8c1-2.5-1.2-4.3-3.6-4.3c-1.2,0-2.4,0-3.6,0c0,0,0,6.5,0,7c0,1.2,0,2.4,0,3.6
	c0,0.4,0.2,0.3,0.6,0.3c0.5,0,0.3-0.3,0.3-0.8c0-0.8,0-1.6,0-2.5c0-0.2-0.1-1.1,0-1.3c0.1-0.2,1.5,0,1.7,0c0.5,0,1,0,1.5,0
	c0.6,1,1.2,2,1.7,2.9c0.3,0.5,0.6,1,0.9,1.5c0.2,0.3,0.8,0.1,1.1,0.1c-0.1-0.7-0.9-1.7-1.3-2.3C198.4,221.7,197.9,220.9,197.5,220.1
	z M193.4,219.6c0-1.3,0-2.7,0-4c0-0.6-0.2-0.7,0.4-0.7c0.7,0,1.4,0,2.1,0c1.1,0,2.4,0.4,2.8,1.5c0.4,1.2-0.1,2.5-1.3,3
	C196.2,219.8,194.6,219.6,193.4,219.6z"/>
<path d="M209,214.2c0,0.6,0,1.3,0,1.9c0,1.6,0,3.2,0,4.8c0,0.7,0,1.5-0.4,2.1c-0.8,1.2-2.5,1.4-3.7,1c-1.8-0.6-1.7-2.4-1.7-4
	c0-1.5,0-3.1,0-4.6c0-0.5,0-0.9,0-1.4c0-0.2-0.9,0-0.9,0c0,2.4,0,4.9,0,7.3c0,2.3,1.7,3.7,3.9,3.7c2.3,0,3.9-1.5,3.9-3.8
	c0-2.4,0-4.8,0-7.2C209.5,214,209,213.8,209,214.2z"/>
<path d="M219.8,214c-0.5,0-1,0-1.4,0c-1.5,0-2.9,0-4.4,0c-0.2,0-2.5-0.1-2.5,0.1c0,0.7-0.1,0.7,0.6,0.7c0.7,0,1.3,0,2,0
	c0.1,0,1.2,0,1.2,0c0,0.3,0,0.6,0,0.9c0,1.4,0,2.9,0,4.3c0,1.4,0,2.8,0,4.2c0,0.1,0,0.7,0,0.7c0.2,0,0.9,0.2,0.9-0.1
	c0-2.7,0-5.4,0-8.1c0-0.4-0.2-1.9,0.2-1.9c1.2,0,2.4,0,3.6,0C220,214.4,220.2,214,219.8,214z"/>
<path d="M226.9,214.1c-3.3-1.2-5.8,1.6-5.8,4.8c-0.1,2.3,0.3,5,2.8,5.9c3.3,1.2,5.8-1.6,5.8-4.8C229.7,217.7,229.5,215,226.9,214.1z
	 M226.6,224c-2.8,1-4.5-1.5-4.5-4c0-1.9,0.1-4.4,2.2-5.2c2.8-1,4.5,1.5,4.5,4C228.8,220.8,228.8,223.3,226.6,224z"/>
<path d="M237.1,220.1c0.9-0.3,1.7-0.9,2.1-1.8c1-2.5-1.2-4.3-3.6-4.3c-1.2,0-2.4,0-3.6,0c0,0,0,6.5,0,7c0,1.2,0,2.4,0,3.6
	c0,0.4,0.2,0.3,0.6,0.3c0.5,0,0.3-0.3,0.3-0.8c0-0.8,0-1.6,0-2.5c0-0.2-0.1-1.1,0-1.3c0.1-0.2,1.5,0,1.7,0c0.5,0,1,0,1.5,0
	c0.6,1,1.2,2,1.7,2.9c0.3,0.5,0.6,1,0.9,1.5c0.2,0.3,0.8,0.1,1.1,0.1c-0.1-0.7-0.9-1.7-1.3-2.3C238,221.7,237.6,220.9,237.1,220.1z
	 M233,219.6c0-1.3,0-2.7,0-4c0-0.6-0.2-0.7,0.4-0.7c0.7,0,1.4,0,2.1,0c1.1,0,2.4,0.4,2.8,1.5c0.4,1.2-0.1,2.5-1.3,3
	C235.9,219.8,234.2,219.6,233,219.6z"/>
<path d="M246.3,215.3c-0.1-0.4-0.3-0.7-0.4-1.1c-0.1-0.3-0.3-0.2-0.6-0.2c-0.6,0-0.7,0.9-0.9,1.4c-0.5,1.3-1,2.5-1.5,3.8
	c-0.7,1.9-1.4,3.7-2.2,5.6c0.1,0,0.9,0.1,1,0c0.1-0.4,0.3-0.7,0.4-1.1c0.1-0.3,0.5-2,0.8-2c1.6,0,3.3,0,4.9,0
	c0.3,0.8,0.6,1.5,0.9,2.3c0.3,0.8,0.3,0.7,1.2,0.7c-0.7-1.9-1.5-3.9-2.2-5.8C247.3,217.8,246.8,216.6,246.3,215.3z M243.2,221
	c0.7-2,1.5-3.9,2.2-5.9c0.7,2,1.5,3.9,2.2,5.9C246.1,221,244.6,221,243.2,221z"/>
<path d="M160.7,143.7c2,0,3.9,0,5.9,0c0.8,0,0.8,0.1,0.8-0.7c0-4.1,0-8.2,0-12.3c0-11.6,0-23.3,0-34.9c0-1,0-1.9,0-2.9
	c0-0.1,4,0,4.3,0c4.9,0,9.9,0,14.8,0c0,0.1,0.1,0.1,0.1,0.2c4.3,8.5,8.7,17,13,25.6c4.2,8.3,8.4,16.6,12.7,24.9
	c0.2,0.3,1.6,0.1,1.9,0.1c2.3,0,4.5,0,6.8,0c6.4,0,12.7,0,19.1,0c2.5,0,4.9,0,7.4,0c0.7,0,1.4,0,2.1,0c0.5,0,0.6,0.1,0.6-0.4
	c0-1.1-0.1-1.4-0.6-2.3c-0.7-1.4-1.4-2.8-2.2-4.1c-5.6-10.6-11.1-21.2-16.7-31.7c-3.7-7-7.4-14-11-21c6.4-3,12.4-7,16.9-12.5
	c4.2-5.2,6.7-11.5,7.8-18c1.7-10,1.1-21.1-3.6-30.3c-4.3-8.2-11.7-14.2-20.1-17.9C210.8,1.3,200.1,0,189.7,0c-2.7,0-5.3,0-8,0
	c-12.3,0-24.6,0-36.9,0c-3.9,0-7.9,0-11.8,0c-0.2,0-0.8-0.2-0.8,0.1c0,0.5,0,1,0,1.6c0,6.9,0,13.8,0,20.7c0,11.9,0,23.7,0,35.6
	c0,13.1,0,26.3,0,39.4c0,10.8,0,21.5,0,32.3c0,4.7,0,9.4,0,14.1C132.1,143.7,158.5,143.7,160.7,143.7z M167.5,26.7
	c1.9,0,3.9,0,5.8,0c5.4,0,10.7,0,16.1,0c4,0,8.1,0.5,11.6,2.5c4,2.2,6.8,6.1,8,10.5c2.5,9.2,0,21.1-9.6,25
	c-5.5,2.2-11.9,1.6-17.7,1.6c-4.8,0-9.5,0-14.3,0c0-1.1,0-2.3,0-3.4c0-11.3,0-22.6,0-33.9C167.4,28.6,167.2,26.7,167.5,26.7z"/>
<path fill="#517936" d="M0,143.7c10,0,19.9,0,29.9,0c1.7,0,3.3,0,5,0c0.5,0,0.3-0.2,0.3-0.6c0-2.6,0-5.3,0-7.9c0-11.1,0-22.3,0-33.4
	c0-12.7,0-25.4,0-38.1c0-6.8,0-13.5,0-20.3c0-0.1,0-0.1,0-0.2c-8.9,4.4-17.8,8.7-26.6,13.1c-2.1,1-4.3,2.1-6.4,3.1
	C2,59.5,0,60.3,0,60.5c0,2.1,0,4.2,0,6.2c0,11.3,0,22.6,0,33.9c0,11.7,0,23.4,0,35.1C0,138.4,0,141,0,143.7z"/>
<path fill="#517936" d="M44,143.7c10,0,19.9,0,29.9,0c1.7,0,3.3,0,5,0c0.4,0,0.3-0.1,0.3-0.5c0-2.2,0-4.4,0-6.7c0-10,0-19.9,0-29.9
	c0-13.1,0-26.2,0-39.3c0-11.1,0-22.3,0-33.4c0-4.1,0-8.3,0-12.4c-8.9,4.4-17.8,8.7-26.6,13.1c-2.1,1-4.3,2.1-6.4,3.1
	c-0.2,0.1-2.2,0.9-2.2,1.1c0,1.7,0,3.4,0,5.1c0,10,0,20,0,29.9c0,13,0,26,0,39.1c0,9.2,0,18.4,0,27.6C44,141.6,44,142.7,44,143.7z"
	/>
<path fill="#517936" d="M88.1,143.7c10,0,19.9,0,29.9,0c1.7,0,3.3,0,5,0c0.4,0,0.3,0,0.3-0.4c0-1.9,0-3.8,0-5.8c0-8.9,0-17.9,0-26.8
	c0-12.7,0-25.4,0-38c0-12.8,0-25.5,0-38.3c0-9.2,0-18.3,0-27.5c0-2.3,0-4.6,0-6.9c-8.9,4.4-17.8,8.7-26.6,13.1
	c-2.1,1-4.3,2.1-6.4,3.1c-0.2,0.1-2.2,0.9-2.2,1.1c0,1.4,0,2.9,0,4.3c0,8.8,0,17.7,0,26.5c0,12.8,0,25.7,0,38.5
	c0,12.1,0,24.2,0,36.4c0,6.7,0,13.3,0,20C88.1,143.2,88.1,143.5,88.1,143.7z"/>
</svg>
